# xmcd
#
# Track frame offsets: 
#        187
#        51037
#        81272
#        101067
#        129820
#        154207
#
# Disc length: 2363 seconds
#
# Revision: 4
# Processed by: cddbd v1.5.2PL0 Copyright (c) Steve Scherf et al.
# Submitted via: ExactAudioCopyFreeDBPlugin 1.0
#
DISCID=43093906
DTITLE=Crusaders - Street Life
DYEAR=1979
DGENRE=Jazz+Funk
TTITLE0=Street Life
TTITLE1=My Lady
TTITLE2=Rodeo Drive (High Steppin')
TTITLE3=Carnival Of The Night
TTITLE4=The Hustler
TTITLE5=Night Faces
EXTD=
EXTT0=
EXTT1=
EXTT2=
EXTT3=
EXTT4=
EXTT5=
PLAYORDER=
